PathFileType	4	(X/Y/Z)	D:\TRACE\v60_Jaco2_6-2-23\JustArmDRS_Motion3_2-platform.trc
DataRate	CameraRate	NumFrames	NumMarkers	Units	OrigDataRate	OrigDataStartFrame	OrigNumFrames
100.00	100.00	      42	5	mm	100.00	4376	      7000
Frame#	Time	Left_Front			Right_Front			Left_Aft			Right_Aft			Post			
		X1	Y1	Z1	X2	Y2	Z2	X3	Y3	Z3	X4	Y4	Z4	X5	Y5	Z5	

4376	43.750	-769.14709	38.27789	-643.28802	801.66846	36.28471	-620.44531	-700.42834	-8.68170	489.74979	714.13739	-14.47509	595.51520	25.76170	1348.31433	-900.76862	
4377	43.760	-768.93237	38.14645	-643.28046	801.86523	36.23052	-620.49841	-700.24506	-8.59531	489.71780	714.33508	-14.45768	595.47028	25.85414	1348.21960	-900.55981	
4378	43.770	-768.67267	38.13670	-643.21844	802.11084	36.18293	-620.49646	-700.07318	-8.54355	489.63443	714.50153	-14.48070	595.39014	26.05437	1348.13525	-900.38647	
4379	43.780	-768.48969	38.14243	-643.54541	802.40631	36.17468	-620.52197	-699.79059	-8.49817	489.63477	714.82318	-14.49823	595.30511	26.37054	1348.00183	-900.11298	
4380	43.790	-768.05341	38.08023	-643.52295	802.65753	36.13662	-620.53125	-699.40393	-8.52831	489.59436	714.82275	-14.43598	595.52155	26.81185	1347.96753	-899.84930	
4381	43.800	-767.63788	37.99761	-643.46747	802.87292	36.10897	-620.50305	-699.17853	-8.53938	489.61200	715.03339	-14.43567	595.40771	27.27727	1347.78601	-899.93542	
4382	43.810	-767.46136	37.91330	-643.57990	803.06421	36.04096	-620.51434	-699.02979	-8.52317	489.51178	715.17334	-14.47038	595.41736	27.72655	1347.68494	-900.17242	
4383	43.820	-767.36420	37.84739	-643.57129	803.20892	35.96926	-620.54114	-698.94391	-8.42818	489.45456	715.51276	-14.33862	595.24640	27.88404	1347.60095	-900.48859	
4384	43.830	-767.30823	37.85839	-643.64252	803.40479	35.92247	-620.52881	-698.76770	-8.43194	489.35117	715.63934	-14.18768	595.15485	27.96005	1347.57019	-900.84418	
4385	43.840	-767.12451	37.93880	-643.73016	803.59900	35.88248	-620.57404	-698.63855	-8.32393	489.37000	715.77283	-14.25822	595.10431	28.14009	1347.50232	-901.32349	
4386	43.850	-766.94897	37.98553	-643.69019	803.79022	35.90682	-620.61835	-698.38916	-8.32420	489.44510	716.07935	-14.33160	595.21002	28.24730	1347.57825	-901.67316	
4387	43.860	-766.75226	37.98082	-643.64386	804.01813	35.89072	-620.58783	-698.08600	-8.33796	489.50003	716.35681	-14.31190	595.19806	28.32264	1347.67419	-901.94855	
4388	43.870	-766.57123	37.87491	-643.61414	804.11029	35.87084	-620.59534	-697.91797	-8.38072	489.57849	716.63782	-14.30454	595.19135	28.35582	1347.69519	-902.09943	
4389	43.880	-766.47455	37.88903	-643.56787	804.25177	35.87133	-620.57117	-697.75275	-8.41757	489.59744	716.73071	-14.35052	595.17737	28.43713	1347.76782	-902.20239	
4390	43.890	-766.37415	37.98088	-643.54260	804.38049	35.89674	-620.56793	-697.70099	-8.38010	489.59555	716.80902	-14.39674	595.21887	28.43923	1347.82434	-902.08929	
4391	43.900	-766.29413	38.04579	-643.53418	804.50861	35.92786	-620.52448	-697.61603	-8.35637	489.57980	716.87653	-14.42846	595.21399	28.55236	1347.75085	-901.76746	
4392	43.910	-766.32495	37.84978	-643.54364	804.66064	35.88768	-620.52789	-697.45453	-8.37779	489.55960	716.96771	-14.41938	595.20471	28.70797	1347.69519	-901.41229	
4393	43.920	-766.21381	37.78925	-643.43433	804.79352	35.85452	-620.51703	-697.27344	-8.38608	489.63815	717.17981	-14.47069	595.20135	28.78797	1347.58289	-901.08667	
4394	43.930	-765.98621	37.73314	-643.45166	804.89874	35.86007	-620.52362	-697.10748	-8.43752	489.68036	717.34760	-14.42562	595.16571	28.96166	1347.55151	-900.61108	
4395	43.940	-765.99066	37.87529	-643.25775	805.04901	35.91825	-620.59442	-696.97870	-8.44031	489.65259	717.57605	-14.36516	595.17548	29.05679	1347.54834	-900.40607	
4396	43.950	-765.82764	37.85413	-643.30432	805.13959	35.95291	-620.61157	-696.93866	-8.39386	489.63074	717.61359	-14.34487	595.15973	29.22059	1347.56323	-900.24591	
4397	43.960	-765.85156	37.88042	-643.28632	805.10071	35.92446	-620.51996	-696.83282	-8.40828	489.61716	717.70807	-14.34012	595.15802	29.22899	1347.61194	-900.19275	
4398	43.970	-765.77838	37.86954	-643.19666	805.19592	35.98720	-620.61774	-696.83124	-8.46603	489.64114	717.69739	-14.37477	595.16803	29.19456	1347.71509	-900.38000	
4399	43.980	-765.79810	37.93432	-643.25250	805.16656	35.98916	-620.54242	-696.69867	-8.56659	489.72931	717.71771	-14.41014	595.20410	29.24829	1347.89722	-900.48828	
4400	43.990	-765.63843	37.95335	-643.08716	805.27216	36.09171	-620.60114	-696.77576	-8.58226	489.75507	717.75299	-14.45113	595.21082	29.20258	1348.07300	-900.73529	
4401	44.000	-765.47949	38.03635	-643.32990	805.31567	36.21597	-620.57739	-696.59869	-8.71369	489.77853	717.81982	-14.48951	595.25000	29.22508	1348.32214	-900.87317	
4402	44.010	-765.47583	38.15186	-643.34216	805.44244	36.39681	-620.49945	-696.51917	-8.75540	489.84622	717.72937	-14.50839	595.26636	29.47455	1348.50452	-901.01172	
4403	44.020	-765.45770	38.33661	-643.24603	805.47296	36.54857	-620.44196	-696.53528	-8.81151	489.87796	717.74017	-14.58521	595.31842	29.49340	1348.62634	-901.04608	
4404	44.030	-765.46307	38.46758	-643.26587	805.46118	36.66360	-620.40613	-696.69446	-8.93169	489.83704	717.66931	-14.72227	595.29919	29.33487	1348.69482	-900.92047	
4405	44.040	-765.50171	38.56727	-643.16199	805.46136	36.78383	-620.35974	-696.71625	-8.99321	489.90628	717.73962	-14.82500	595.33466	29.32558	1348.74670	-900.57202	
4406	44.050	-765.46362	38.69211	-643.14227	805.41644	36.92739	-620.33997	-696.67682	-9.10921	489.87216	717.74695	-14.91279	595.49170	29.42137	1348.99792	-899.76227	
4407	44.060	-765.40417	38.88568	-643.03436	805.43823	37.04080	-620.33655	-696.63916	-9.21850	489.92413	717.79224	-15.10836	595.51660	29.59719	1349.20288	-899.21967	
4408	44.070	-765.37238	39.04220	-642.94202	805.35675	37.17263	-620.33771	-696.66333	-9.29619	489.92896	717.84027	-15.24612	595.63806	29.80289	1349.31494	-898.51868	
4409	44.080	-765.30835	39.19127	-642.85669	805.31940	37.28839	-620.36597	-696.64850	-9.41580	489.94098	717.86603	-15.41411	595.65503	29.66295	1349.35352	-898.09167	
4410	44.090	-765.34558	39.35696	-642.82526	805.27710	37.43157	-620.32678	-696.67590	-9.48163	489.97537	717.85272	-15.56762	595.77783	29.62641	1349.51929	-897.27423	
4411	44.100	-765.37183	39.51704	-642.73987	805.26947	37.58968	-620.23346	-696.67383	-9.63615	489.99832	717.82721	-15.63873	595.76813	29.42634	1349.73816	-896.66687	
4412	44.110	-765.35071	39.65078	-642.68250	805.24463	37.80532	-620.12848	-696.69958	-9.74538	490.02078	717.85974	-15.78810	595.68451	29.35132	1349.99121	-896.44623	
4413	44.120	-765.58923	39.87117	-642.37378	805.20160	38.00254	-620.08820	-696.76672	-9.87069	490.05121	717.84363	-15.94333	595.69305	29.56847	1350.32996	-896.13904	
4414	44.130	-765.43677	39.90435	-642.69379	805.13727	38.21351	-620.05725	-696.83319	-10.01892	490.11850	717.77588	-16.14772	595.69379	29.59528	1350.77332	-895.89191	
4415	44.140	-765.52386	39.98851	-642.63190	805.03900	38.40388	-620.01672	-696.99371	-10.17309	490.12946	717.44434	-16.37451	595.79425	29.48570	1351.08398	-895.85602	
4416	44.150	-765.79089	40.20333	-642.66931	804.89325	38.61356	-619.93823	-697.16284	-10.35675	490.14926	717.18573	-16.59865	595.77448	29.24481	1351.39709	-895.76105	
4417	44.160	-765.93207	40.37094	-642.75262	804.65198	38.84566	-619.87115	-697.33887	-10.40172	490.23724	716.88391	-16.81112	595.86011	29.18716	1351.67322	-895.70160	
